<?xml version="1.0" encoding="UTF-8"?>
<svg version="1.1" xmlns="http://www.w3.org/2000/svg" width="256" height="256">
<path d="M0 0 C84.48 0 168.96 0 256 0 C256 84.48 256 168.96 256 256 C171.52 256 87.04 256 0 256 C0 171.52 0 87.04 0 0 Z " fill="#FEFEFE" transform="translate(0,0)"/>
<path d="M0 0 C0.33 0.66 0.66 1.32 1 2 C2.38975952 2.81835013 3.8122587 3.58172752 5.25 4.3125 C9.20625947 6.46819413 12.01962534 8.56110616 15 12 C15.639375 12.721875 16.27875 13.44375 16.9375 14.1875 C21.67864004 19.76531181 24.81347451 25.01827256 27 32 C27.35835937 33.07378906 27.71671875 34.14757812 28.0859375 35.25390625 C29.13018677 39.53354323 29.3023066 43.36838855 29.25 47.75 C29.24613281 48.53552246 29.24226562 49.32104492 29.23828125 50.13037109 C29.14805736 56.23176145 28.46434158 62.06418683 27 68 C26.34 68 25.68 68 25 68 C24.89042969 68.73476562 24.78085938 69.46953125 24.66796875 70.2265625 C22.45411546 79.41858495 13.51299784 88.56506539 6 94 C3.125 94.8125 3.125 94.8125 1 95 C1 95.66 1 96.32 1 97 C0.00097656 97.27714844 -0.99804688 97.55429688 -2.02734375 97.83984375 C-3.33077791 98.20555549 -4.63416069 98.57145038 -5.9375 98.9375 C-6.59685547 99.11990234 -7.25621094 99.30230469 -7.93554688 99.49023438 C-11.23821173 100.22596101 -11.23821173 100.22596101 -14 102 C-17.32463653 102.28218366 -20.66483745 102.2319477 -24 102.25 C-24.92167969 102.270625 -25.84335938 102.29125 -26.79296875 102.3125 C-33.0895158 102.34802354 -38.17422057 101.36433644 -44 99 C-45.010625 98.608125 -46.02125 98.21625 -47.0625 97.8125 C-47.701875 97.544375 -48.34125 97.27625 -49 97 C-49 96.34 -49 95.68 -49 95 C-50.2375 94.7215625 -50.2375 94.7215625 -51.5 94.4375 C-59.02381258 91.34736269 -64.81931865 84.88862268 -69 78 C-69 77.34 -69 76.68 -69 76 C-69.66 76 -70.32 76 -71 76 C-74 70.25 -74 70.25 -74 68 C-74.66 68 -75.32 68 -76 68 C-76.66 66.02 -77.32 64.04 -78 62 C-78.66 62 -79.32 62 -80 62 C-80.96189997 60.27281484 -81.91936508 58.54315942 -82.875 56.8125 C-83.40867187 55.84957031 -83.94234375 54.88664062 -84.4921875 53.89453125 C-85.8423678 51.30260482 -86.97098329 48.73238902 -88 46 C-88.66 46 -89.32 46 -90 46 C-90.99 43.03 -90.99 43.03 -92 40 C-92.66 40 -93.32 40 -94 40 C-94.66 39.01 -95.32 38.02 -96 37 C-103.1550704 47.02579773 -109.64363774 57.40351303 -116.0703125 67.90625 C-118.24918593 71.39950456 -120.52753299 74.81087871 -122.87109375 78.1953125 C-124.16731594 80.11025001 -124.16731594 80.11025001 -125 83 C-123.34230591 82.97643433 -123.34230591 82.97643433 -121.65112305 82.95239258 C-117.55305259 82.89811443 -113.45501393 82.86365776 -109.35668945 82.83520508 C-107.58254657 82.82011359 -105.80844102 82.79963809 -104.03442383 82.77368164 C-101.48509513 82.73731359 -98.93625941 82.72027762 -96.38671875 82.70703125 C-95.59287277 82.69154739 -94.79902679 82.67606354 -93.98112488 82.66011047 C-88.48485331 82.65842871 -88.48485331 82.65842871 -86.1105957 84.33105469 C-85.74409912 84.88180664 -85.37760254 85.43255859 -85 86 C-83.93265625 87.48306641 -83.93265625 87.48306641 -82.84375 88.99609375 C-82.05931423 90.14105303 -81.27814656 91.28825714 -80.5 92.4375 C-78.06309457 96.01243223 -75.59736555 99.53684593 -73 103 C-102.7 103 -132.4 103 -163 103 C-161.97819874 98.91279495 -160.5919608 96.42727309 -158.375 92.875 C-158.01672119 92.29951416 -157.65844238 91.72402832 -157.28930664 91.13110352 C-154.58032696 86.81910649 -151.67577131 82.66995669 -148.71484375 78.52734375 C-146.1770421 74.78712127 -143.99143034 70.86000309 -141.75 66.9375 C-139.60255666 63.33286297 -137.19533205 59.96849821 -134.75 56.5625 C-132.85006699 53.78045524 -131.17127791 50.92473635 -129.5 48 C-126.83331081 43.3377483 -123.93333146 38.97677912 -120.80859375 34.61328125 C-118.07254135 30.65989236 -115.61044082 26.54838519 -113.11328125 22.44140625 C-110.90324761 18.81978259 -108.61460748 15.25109531 -106.3125 11.6875 C-103.16648213 6.81689416 -100.05539253 1.92805247 -97 -3 C-92.33052221 -1.47970491 -90.40837441 2.33341819 -87.875 6.25 C-87.43285156 6.90613281 -86.99070312 7.56226562 -86.53515625 8.23828125 C-84.02840619 12.04763255 -82.22722502 15.55992747 -81 20 C-80.34 20 -79.68 20 -79 20 C-76 25.75 -76 25.75 -76 28 C-75.34 28 -74.68 28 -74 28 C-73.25556641 29.34191406 -73.25556641 29.34191406 -72.49609375 30.7109375 C-68.83566201 37.24781163 -65.05453435 43.5232913 -60.67578125 49.61328125 C-53 60.54545455 -53 60.54545455 -53 65 C-51.515 65.495 -51.515 65.495 -50 66 C-49.566875 66.7425 -49.13375 67.485 -48.6875 68.25 C-45.48780059 73.46432497 -39.7886731 78.04117939 -33.77734375 79.5625 C-25.63416404 80.84525123 -17.24628583 81.22700007 -10 77 C-8.96875 76.401875 -7.9375 75.80375 -6.875 75.1875 C-3.15318901 72.35568729 -0.11789999 69.23579998 2 65 C2.66 65 3.32 65 4 65 C6.67780028 55.29297397 8.18953183 44.26854815 3.33984375 35.03515625 C0.02736178 30.00366032 -3.38156038 25.45190677 -9 23 C-9 22.34 -9 21.68 -9 21 C-11.64 20.67 -14.28 20.34 -17 20 C-17 19.34 -17 18.68 -17 18 C-32.36180403 18.20001635 -32.36180403 18.20001635 -45.16015625 26.109375 C-46.86377023 28.01959028 -48.46568176 29.95254884 -50 32 C-53 31 -53 31 -54.02734375 29.36328125 C-54.47787109 28.34814453 -54.47787109 28.34814453 -54.9375 27.3125 C-56.20727128 24.58175636 -57.52463236 22.0941657 -59.25 19.625 C-61 17 -61 17 -61 15 C-61.66 15 -62.32 15 -63 15 C-62.65194869 12.1124632 -62.0725409 11.07115123 -59.9609375 9 C-57.33025998 6.96539744 -54.68982967 4.95587315 -52 3 C-51.41863281 2.57074219 -50.83726562 2.14148438 -50.23828125 1.69921875 C-36.8437713 -7.03926507 -14.18542661 -6.67836236 0 0 Z " fill="#060606" transform="translate(194,69)"/>
<path d="M0 0 C0.66 0.33 1.32 0.66 2 1 C0.88200014 2.33920838 -0.24461897 3.67122556 -1.375 5 C-2.00148437 5.7425 -2.62796875 6.485 -3.2734375 7.25 C-4.12808594 8.11625 -4.12808594 8.11625 -5 9 C-5.66 9 -6.32 9 -7 9 C-6.82374165 6.62051228 -6.30280227 5.29774151 -4.59765625 3.62109375 C-3.09350908 2.37884514 -1.54870149 1.18623944 0 0 Z " fill="#313131" transform="translate(138,75)"/>
</svg>
